<svg xmlns="http://www.w3.org/2000/svg" width="32" height="32" enable-background="new 0 0 32 32" viewBox="0 0 32 32"><path d="M 8.5292969 0 C 8.2403735 -0.0079994561 7.9456179 0.067565925 7.6835938 0.234375 C 6.9848628 0.6791992 6.7797851 1.6054686 7.2246094 2.3046875 L 11.681641 9.3046875 C 11.768006 9.440491 12 9.5509644 12 9.6484375 L 12 20.117188 L 9.1777344 25.28125 C 9.1103514 25.404785 9.0581054 25.536621 9.0273438 25.673828 L 8.0253906 30.173828 C 7.8457031 30.982422 8.3549805 31.785156 9.1640625 31.964844 C 9.2734375 31.989254 9.3823242 32 9.4902344 32 C 10.177734 32 10.797851 31.523437 10.953125 30.824219 L 11.908203 26.53125 L 13.841797 22.984375 C 13.891113 22.988032 13.938049 23 13.988281 23 L 17.988281 23 C 18.038631 23 18.087285 22.988045 18.136719 22.984375 L 20.070312 26.53125 L 21.025391 30.824219 C 21.180664 31.523438 21.800781 32 22.488281 32 C 22.596191 32 22.705078 31.989264 22.814453 31.964844 C 23.623535 31.785156 24.132813 30.982422 23.953125 30.173828 L 22.953125 25.673828 C 22.922365 25.536621 22.879884 25.404785 22.8125 25.28125 L 20 20.117188 L 20 18.597656 C 20 18.582216 20.034421 18.576897 20.050781 18.560547 L 24.570312 14.037109 C 25.15625 13.45166 25.156201 12.501465 24.570312 11.916016 L 20.091797 7.4394531 C 19.793336 7.1409912 19.400757 6.9982911 19.009766 7.0039062 C 19.002564 7.0037231 18.995544 7 18.988281 7 L 13.765625 7 L 9.7558594 0.6953125 C 9.4784546 0.25860594 9.0108358 0.013332427 8.5292969 0 z M 15.988281 0 A 3 3 0 0 0 12.988281 3 A 3 3 0 0 0 15.988281 6 A 3 3 0 0 0 18.988281 3 A 3 3 0 0 0 15.988281 0 z M 20 11.580078 L 21.396484 12.976562 L 20 14.373047 L 20 11.580078 z "/></svg>